<?xml version="1.0" encoding="UTF-8" standalone="no"?>
<svg
   xmlns="http://www.w3.org/2000/svg"
   x="0px"
   y="0px"
   width="612px"
   height="612px"
   viewBox="0 0 612 612">
	<path
		style="opacity:1;fill:#e6e6e6;fill-opacity:1;stroke:#ececec;stroke-width:28.57099915;stroke-linecap:round;stroke-miterlimit:4;stroke-dasharray:none;stroke-opacity:0.98913042;paint-order:stroke markers fill"
		d="M 313.80888,316.40234 A 141.34367,134.86002 0 0 1 173.01595,451.26134 141.34367,134.86002 0 0 1 31.125828,317.45328 141.34367,134.86002 0 0 1 170.81303,181.55154 141.34367,134.86002 0 0 1 313.79172,314.30053 l -141.32651,2.10181 z" />
	<path
		style="opacity:1;fill:#e6e6e6;fill-opacity:1;stroke:#ececec;stroke-width:28.57099915;stroke-linecap:round;stroke-miterlimit:4;stroke-dasharray:none;stroke-opacity:0.98913042;paint-order:stroke markers fill"
		d="M 868.80972,316.40234 A 254.15927,248.97234 0 0 1 615.64077,565.37279 254.15927,248.97234 0 0 1 360.4989,318.34254 254.15927,248.97234 0 0 1 611.67956,67.447018 254.15927,248.97234 0 0 1 868.77885,312.52207 l -254.1284,3.88027 z" />
	<path
		style="opacity:1;fill:#ffffff;fill-opacity:1;stroke:#ececec;stroke-width:28.57099915;stroke-linecap:round;stroke-miterlimit:4;stroke-dasharray:none;stroke-opacity:0.98913042;paint-order:stroke markers fill"
		d="M -233.74336,167.91357 -565.91361,23.437335 -476.99064,-105.95428 Z"
		transform="matrix(0.2737097,0,0,0.54126197,392.23769,114.3526)" />
	<path
		style="opacity:1;fill:#ffffff;fill-opacity:1;stroke:#ececec;stroke-width:28.57099915;stroke-linecap:round;stroke-miterlimit:4;stroke-dasharray:none;stroke-opacity:0.98913042;paint-order:stroke markers fill"
		d="M -233.74336,167.91357 -565.91361,23.437335 -476.99064,-105.95428 Z"
		transform="matrix(0.15447145,0,0,-0.38363923,427.88071,158.74123)" />
	<path
		style="opacity:1;fill:#ffffff;fill-opacity:1;stroke:#ececec;stroke-width:28.57099915;stroke-linecap:round;stroke-miterlimit:4;stroke-dasharray:none;stroke-opacity:0.98913042;paint-order:stroke markers fill"
		d="M -233.74336,167.91357 -565.91361,23.437335 -476.99064,-105.95428 Z"
		transform="matrix(0.15447145,0,0,-0.38363923,368.63294,474.19064)" />
	</svg>
