<?xml version="1.0" encoding="UTF-8" standalone="no"?>
<svg
	xmlns="http://www.w3.org/2000/svg"
	x="0px"
	y="0px"
	width="612px"
	height="612px"
	viewBox="0 0 612 612">
	<defs>
	 <filter
		 style="color-interpolation-filters:sRGB"
		 id="blur1"
		 x="-0.021715552"
		 width="1.0434311"
		 y="-0.026828581"
		 height="1.0536572">
		 <feGaussianBlur
				stdDeviation="2.7045555"
				id="feGaussianBlur847"/>
		</filter>
	</defs>
	<g
     style="fill:#b3b3b3"
     transform="matrix(-1,0,0,1,612.05675,0)">
		 <g
       style="fill:#b3b3b3">
			 <g
         style="fill:#b3b3b3">
				 <path
           d="M 595.2,513.908 493.775,412.482 C 520.482,370.755 536.46,321.441 536.46,268.219 536.459,120.085 416.375,0 268.24,0 120.106,0 0.021,120.085 0.021,268.219 c 0,148.134 120.085,268.22 268.219,268.22 53.222,0 102.537,-15.979 144.225,-42.686 l 101.426,101.463 c 22.454,22.453 58.854,22.453 81.271,0 22.492,-22.491 22.492,-58.855 0.038,-81.308 z M 268.24,459.805 c -105.793,0 -191.585,-85.793 -191.585,-191.585 0,-105.793 85.792,-191.585 191.585,-191.585 105.793,0 191.585,85.792 191.585,191.585 0.001,105.792 -85.791,191.585 -191.585,191.585 z"
           style="fill:#b3b3b3"/>
				 </g>
			 </g>
		 </g>
		 <path
     d="m 183.73673,270.97618 c 0,0 130.27764,-110.20396 225.55583,-124.80217 122.2963,54.60887 71.02251,228.28589 -4.57981,241.94098 C 305.10679,361.23053 183.73673,270.97618 183.73673,270.97618 Z"
     style="fill:#ffffff;fill-opacity:1;stroke:#050505;stroke-width:8;stroke-linecap:butt;stroke-linejoin:miter;stroke-miterlimit:4;stroke-dasharray:none;stroke-opacity:1;filter:url(#blur1)" />
		 <path
     style="fill:none;stroke:#000000;stroke-width:1px;stroke-linecap:butt;stroke-linejoin:miter;stroke-opacity:1;filter:url(#blur1)"
     d="m 409.30512,146.14258 c 0,0 -70.1786,13.69873 -77.10413,113.72941 -6.92546,100.03046 73.08114,128.27457 73.08114,128.27457"/>
		 <path
     style="opacity:1;fill:#007bff;stroke:#007bff;stroke-width:1;filter:url(#blur1)"
     d="m 432.59601,261.12051 a 16.668613,34.375835 0 0 1 -16.60367,34.37558 16.668613,34.375835 0 0 1 -16.73305,-34.10769 16.668613,34.375835 0 0 1 16.47326,-34.64137 16.668613,34.375835 0 0 1 16.86143,33.83773 l -16.66659,0.53575 z" />
		 <path
     style="opacity:1;fill:#ffffff;fill-opacity:1;stroke:none;stroke-width:28.57099915;stroke-linecap:round;stroke-miterlimit:4;stroke-dasharray:none;stroke-opacity:0.98913042;paint-order:stroke markers fill"
     d="M 1247.4552,273.61023 A 208.77368,221.741 0 0 1 1039.495,495.34954 208.77368,221.741 0 0 1 829.91418,275.33822 208.77368,221.741 0 0 1 1036.2411,51.884381 208.77368,221.741 0 0 1 1247.4298,270.15436 l -208.7483,3.45587 z" />
	 </svg>
