<?xml version="1.0" encoding="UTF-8" standalone="no"?>
<svg
	xmlns="http://www.w3.org/2000/svg"
	x="0px"
	y="0px"
	width="612px"
	height="612px"
	viewBox="0 0 612 612">
	<path
		style="opacity:1;fill:#e6e6e6;fill-opacity:1;stroke:#ececec;stroke-width:28.57099915;stroke-linecap:round;stroke-miterlimit:4;stroke-dasharray:none;stroke-opacity:0.98913042;paint-order:stroke markers fill"
		d="M 313.80888,316.40234 A 141.34367,134.86002 0 0 1 173.01595,451.26134 141.34367,134.86002 0 0 1 31.125828,317.45328 141.34367,134.86002 0 0 1 170.81303,181.55154 141.34367,134.86002 0 0 1 313.79172,314.30053 l -141.32651,2.10181 z" />
	<path
		style="opacity:1;fill:#e6e6e6;fill-opacity:1;stroke:#ececec;stroke-width:28.57099915;stroke-linecap:round;stroke-miterlimit:4;stroke-dasharray:none;stroke-opacity:0.98913042;paint-order:stroke markers fill"
		d="M 726.16931,318.99582 A 254.15927,248.97234 0 0 1 473.00036,567.96626 254.15927,248.97234 0 0 1 217.85849,320.93602 254.15927,248.97234 0 0 1 469.03915,70.040493 254.15927,248.97234 0 0 1 726.13844,315.11554 l -254.1284,3.88028 z" />
	</svg>
