<?xml version="1.0" encoding="UTF-8" standalone="no"?>
<svg
   xmlns:svg="http://www.w3.org/2000/svg"
   xmlns="http://www.w3.org/2000/svg"
   width="500"
   height="500"
   version="1.1"
	 transform="rotate(180)"
	 >
  <defs
     id="defs16" />
  <path
     id="path3606"
     d="m 494.77828,253.84848 c 0,0 -130.27764,-110.20396 -225.55583,-124.80217 -122.2963,54.60887 -71.02251,228.28589 4.57981,241.94098 99.60596,-26.88446 220.97602,-117.13881 220.97602,-117.13881 z"
     style="fill:none;fill-opacity:1;stroke:#050505;stroke-width:7.83701229;stroke-linecap:butt;stroke-linejoin:miter;stroke-miterlimit:4;stroke-dasharray:none;stroke-opacity:1" />
  <rect
     style="fill:#000000;stroke-width:0.56276172"
     id="rect52"
     width="77.037857"
     height="10"
     x="-78.037857"
     y="245"
     transform="scale(-1,1)" />
  <path
     style="fill:none;stroke:#000000;stroke-width:1.32830763px;stroke-linecap:butt;stroke-linejoin:miter;stroke-opacity:1"
     d="m 269.20989,129.01488 c 0,0 70.1786,13.69873 77.10413,113.72941 6.92546,100.03046 -73.08114,128.27457 -73.08114,128.27457"
     id="path4541"/>
  <path
     style="opacity:1;fill:#000000;stroke:#000000;stroke-width:1.21260345"
     id="path4543"
     d="m -245.919,243.99281 a 16.668613,34.375835 0 0 1 -16.60367,34.37558 16.668613,34.375835 0 0 1 -16.73305,-34.10769 16.668613,34.375835 0 0 1 16.47326,-34.64137 16.668613,34.375835 0 0 1 16.86143,33.83773 l -16.66659,0.53575 z"
     transform="scale(-1,1)" />
</svg>
