<?xml version="1.0" encoding="UTF-8" standalone="no"?>
<svg
   xmlns="http://www.w3.org/2000/svg"
   x="0px"
   y="0px"
   width="612px"
   height="612px"
   viewBox="0 0 612 612">
	 <defs>
		 <filter
       style="color-interpolation-filters:sRGB"
       id="blur1"
       x="-0.011989082"
       width="1.0239782"
       y="-0.012010938"
       height="1.0240219">
			 <feGaussianBlur
         stdDeviation="2.5263246"
         id="feGaussianBlur877" />
			 </filter>
		 </defs>
		 <g
     style="fill:#808080;filter:url(#blur1)"
     transform="matrix(-1,0,0,1,612.05675,0)">
		 <g
       style="fill:#808080">
			 <g
         style="fill:#808080">
				 <path
           d="M 595.2,513.908 493.775,412.482 C 520.482,370.755 536.46,321.441 536.46,268.219 536.459,120.085 416.375,0 268.24,0 120.106,0 0.021,120.085 0.021,268.219 c 0,148.134 120.085,268.22 268.219,268.22 53.222,0 102.537,-15.979 144.225,-42.686 l 101.426,101.463 c 22.454,22.453 58.854,22.453 81.271,0 22.492,-22.491 22.492,-58.855 0.038,-81.308 z M 268.24,459.805 c -105.793,0 -191.585,-85.793 -191.585,-191.585 0,-105.793 85.792,-191.585 191.585,-191.585 105.793,0 191.585,85.792 191.585,191.585 0.001,105.792 -85.791,191.585 -191.585,191.585 z"
           style="fill:#808080"/>
				 </g>
			 </g>
		 </g>
		 <g
     id="g4528"
     style="opacity:0.99999999;paint-order:stroke markers fill;fill:#000000;stroke:#000000;stroke-opacity:0.98913044;">
		 <path
       transform="matrix(0.94985214,0,0,0.95491443,23.320201,19.13526)"
       d="M 44.088852,51.869238 C 578.342,588.71585 548.51719,556.29758 548.51719,556.29758 l 1.29673,-1.29673 v 0"
       style="fill:#000000;stroke:#000000;stroke-width:29.99958247;stroke-linecap:round;stroke-linejoin:round;stroke-miterlimit:4;stroke-dasharray:none;stroke-opacity:0.98913044;paint-order:stroke markers fill" />
		<path
       transform="matrix(-0.94985214,0,0,0.95491443,587.44005,19.135259)"
       d="M 44.088852,51.869238 C 578.342,588.71585 548.51719,556.29758 548.51719,556.29758 l 1.29673,-1.29673 v 0"
       style="fill:#000000;stroke:#000000;stroke-width:29.99958247;stroke-linecap:round;stroke-linejoin:round;stroke-miterlimit:4;stroke-dasharray:none;stroke-opacity:0.98913044;paint-order:stroke markers fill" />
		 </g>
</svg>
